<svg width="202" height="57" viewBox="0 0 202 57" fill="none" xmlns="http://www.w3.org/2000/svg">
<path d="M22.0756 17.3882L38.1113 33.424L30.4774 41.058C29.465 42.0703 27.9874 42.5342 26.3692 42.3478C24.7513 42.1614 23.1256 41.3401 21.8497 40.0642L15.4354 33.6499C14.1595 32.374 13.338 30.7483 13.1517 29.1301C12.9653 27.5122 13.4294 26.0345 14.4417 25.0222L22.0756 17.3882Z" stroke="#030E12" stroke-width="4" stroke-linecap="round" stroke-linejoin="round"/>
<path d="M32.4491 14.5474L27.0273 19.969" stroke="#030E12" stroke-width="4" stroke-linecap="round" stroke-linejoin="round"/>
<path d="M40.581 22.6785L35.1592 28.1" stroke="#030E12" stroke-width="4" stroke-linecap="round" stroke-linejoin="round"/>
<path d="M16.9236 37.8772L13.8536 40.9472C13.0394 41.7615 9.87443 44.7264 9.74902 45.7525" stroke="#030E12" stroke-width="4" stroke-linecap="round" stroke-linejoin="round"/>
<path d="M27 53.5C40.8071 53.5 52 42.3071 52 28.5C52 14.6929 40.8071 3.5 27 3.5C13.1929 3.5 2 14.6929 2 28.5C2 42.3071 13.1929 53.5 27 53.5Z" stroke="#030E12" stroke-width="4"/>
<path d="M79.8555 25.7109C79.8555 19.0703 76.8281 15.75 70.7734 15.75C66.8672 15.75 63.6445 17.6055 62.082 20.9258L61.6914 16.3359H57.8828C58.0781 18.4844 58.2734 20.8281 58.2734 23.4648V41.5312H62.2773V27.1758C62.2773 22.293 65.4023 19.168 69.9922 19.168C73.9961 19.168 75.8516 21.3164 75.8516 25.9062V41.5312H79.8555V25.7109ZM108.273 28.0547C108.273 20.4375 104.27 15.75 97.6289 15.75C90.6953 15.75 85.8125 21.1211 85.8125 28.8359C85.8125 36.9414 90.5 41.9219 98.4102 41.9219C101.926 41.9219 105.637 40.5547 107.883 38.5039L106.516 35.5742C104.074 37.5273 101.34 38.5039 98.4102 38.5039C92.8438 38.5039 89.9141 35.1836 89.9141 28.8359H108.273V28.0547ZM90.0117 26.1992C90.793 21.6094 93.4297 18.9727 97.6289 18.9727C101.828 18.9727 104.27 21.4141 104.66 26.1992H90.0117ZM169.113 10.2812V5.69141H164.23V10.2812H169.113ZM168.625 16.3359H164.621V41.5312H168.625V16.3359ZM198.117 25.7109C198.117 19.0703 195.09 15.75 189.035 15.75C185.129 15.75 181.906 17.6055 180.344 20.9258L179.953 16.3359H176.145C176.34 18.4844 176.535 20.8281 176.535 23.4648V41.5312H180.539V27.1758C180.539 22.293 183.664 19.168 188.254 19.168C192.258 19.168 194.113 21.3164 194.113 25.9062V41.5312H198.117V25.7109Z" fill="#5BCCF6"/>
<path d="M154.465 6.375C154.465 4.71484 153 3.25 151.34 3.25C149.582 3.25 148.215 4.71484 148.215 6.375V15.75H154.465V6.375ZM159.152 18.875H124.777C123.898 18.875 123.215 19.6562 123.215 20.4375V23.5625C123.215 24.4414 123.898 25.125 124.777 25.125H126.34V28.25C126.34 35.8672 131.711 42.1172 138.84 43.582V53.25H145.09V43.582C152.121 42.1172 157.492 35.8672 157.59 28.25V25.125H159.152C159.934 25.125 160.715 24.4414 160.715 23.5625V20.4375C160.715 19.6562 159.934 18.875 159.152 18.875ZM135.715 6.375C135.715 4.71484 134.25 3.25 132.59 3.25C130.832 3.25 129.465 4.71484 129.465 6.375V15.75H135.715V6.375Z" fill="#030E12"/>
</svg>
