<svg width="149" height="40" viewBox="0 0 149 40" fill="none" xmlns="http://www.w3.org/2000/svg">
<path d="M11.8383 23.8827C9.6984 23.8827 7.97266 22.157 7.97266 20.017C7.97266 17.8771 9.6984 16.1514 11.8383 16.1514C13.9782 16.1514 15.704 17.8771 15.704 20.017C15.704 22.157 13.9782 23.8827 11.8383 23.8827Z" fill="#030E12"/>
<path d="M19.1548 38.3096C9.14551 38.3096 1 30.1641 1 20.1548C1 10.1455 9.14551 2 19.1548 2C29.1641 2 37.3096 10.1455 37.3096 20.1548C37.3096 30.1641 29.1641 38.3096 19.1548 38.3096ZM19.1548 4.69216C10.5951 4.69216 3.69216 11.6642 3.69216 20.1548C3.69216 28.7145 10.6642 35.6175 19.1548 35.6175C27.6455 35.6175 34.6175 28.6455 34.6175 20.1548C34.6175 11.5951 27.6455 4.69216 19.1548 4.69216Z" fill="#030E12" stroke="#030E12" stroke-width="1.5611"/>
<path d="M25.9184 23.8827C23.7785 23.8827 22.0527 22.157 22.0527 20.017C22.0527 17.8771 23.7785 16.1514 25.9184 16.1514C28.0583 16.1514 29.7841 17.8771 29.7841 20.017C29.7841 22.157 28.1273 23.8827 25.9184 23.8827Z" fill="#030E12"/>
<path d="M58.7091 18.0144C58.7091 12.9752 56.4311 10.4211 51.8061 10.4211C48.8378 10.4211 46.3528 11.8017 45.1793 14.3558L44.9032 10.8353H42.0039C42.142 12.492 42.28 14.2177 42.28 16.2886V30.0255H45.3173V19.1188C45.3173 15.3912 47.6643 13.0442 51.1849 13.0442C54.2222 13.0442 55.6718 14.7009 55.6718 18.1524V30.0255H58.7091V18.0144V18.0144ZM80.3154 19.8091C80.3154 14.0106 77.2781 10.4211 72.2389 10.4211C66.9927 10.4211 63.2651 14.4938 63.2651 20.3614C63.2651 26.505 66.8546 30.3016 72.8602 30.3016C75.5524 30.3016 78.3826 29.2662 80.0393 27.6785L79.0038 25.4696C77.14 26.9882 75.0691 27.6785 72.8602 27.6785C68.6494 27.6785 66.3714 25.1244 66.3714 20.3614H80.3154V19.8091ZM66.4404 18.3595C67.0617 14.839 69.0636 12.8371 72.2389 12.8371C75.4143 12.8371 77.2781 14.7009 77.5542 18.3595H66.4404ZM126.91 6.2793V2.75879H123.183V6.2793H126.91ZM126.565 10.9043H123.528V30.0946H126.565V10.9043ZM149 18.0144C149 12.9752 146.722 10.4211 142.097 10.4211C139.129 10.4211 136.644 11.8017 135.47 14.3558L135.194 10.8353H132.295C132.433 12.492 132.571 14.2177 132.571 16.2886V30.0255H135.608V19.1188C135.608 15.3912 137.955 13.0442 141.476 13.0442C144.513 13.0442 145.963 14.7009 145.963 18.1524V30.0255H149V18.0144V18.0144Z" fill="#5BCCF6"/>
<path d="M93.569 12.1475H116.901V22.64C116.901 24.0896 116.142 25.5392 114.83 26.5747C113.519 27.6101 111.724 28.2314 109.86 28.2314H100.541C98.6772 28.2314 96.8825 27.6791 95.5709 26.5747C94.2593 25.5392 93.5 24.0896 93.5 22.64L93.569 12.1475Z" stroke="#030E12" stroke-width="4" stroke-linecap="round" stroke-linejoin="round"/>
<path d="M99.2988 2.55273V10.4221" stroke="#030E12" stroke-width="4" stroke-linecap="round" stroke-linejoin="round"/>
<path d="M111.172 2.55273V10.4221" stroke="#030E12" stroke-width="4" stroke-linecap="round" stroke-linejoin="round"/>
<path d="M105.441 30.165V36.999" stroke="#030E12" stroke-width="4" stroke-linecap="round" stroke-linejoin="round"/>
</svg>
