<svg width="55" height="55" viewBox="0 0 55 55" fill="none" xmlns="http://www.w3.org/2000/svg">
<path d="M27.3 53.6C12.8 53.6 1 41.8 1 27.3C1 12.8 12.8 1 27.3 1C41.8 1 53.6 12.8 53.6 27.3C53.6 41.8 41.8 53.6 27.3 53.6ZM27.3 4.89999C14.9 4.89999 4.9 15 4.9 27.3C4.9 39.7 15 49.7 27.3 49.7C39.6 49.7 49.7 39.6 49.7 27.3C49.7 14.9 39.6 4.89999 27.3 4.89999Z" fill="#030E12" stroke="#030E12" stroke-width="1.5611"/>
<path d="M37.1 32.7C34 32.7 31.5 30.2 31.5 27.1C31.5 24 34 21.5 37.1 21.5C40.2 21.5 42.7 24 42.7 27.1C42.7 30.2 40.3 32.7 37.1 32.7Z" fill="#030E12"/>
<path d="M16.7 32.7C13.6 32.7 11.1 30.2 11.1 27.1C11.1 24 13.6 21.5 16.7 21.5C19.8 21.5 22.3 24 22.3 27.1C22.3 30.2 19.8 32.7 16.7 32.7Z" fill="#030E12"/>
</svg>
